<svg width="30" height="30" viewBox="0 0 30 30" fill="none" xmlns="http://www.w3.org/2000/svg">
<path fill-rule="evenodd" clip-rule="evenodd" d="M12.9529 22.7333C12.9529 22.7333 8 22.1963 8 17.9971C8 13.7979 10.5358 12.0667 12.645 11.0128C14.7543 9.95893 15.0833 7 15.0833 7C15.0833 7 18.3801 8.85876 18.8542 11.1869C19.3283 13.515 17.891 15.4444 17.891 15.4444C17.891 15.4444 19.4796 15.3229 20.1577 14.1677C20.8358 13.0125 20.9889 12.0667 20.9889 12.0667C20.9889 12.0667 24.068 16.8004 22.4328 19.2156C20.7976 21.6307 18.3751 23 18.3751 23C18.3751 23 15.4343 21.6768 14.7069 20.1947C13.9794 18.7126 14.5023 16.6 14.5023 16.6C14.5023 16.6 12.1 17.3661 11.7208 19.2156C11.3416 21.065 12.9529 22.7333 12.9529 22.7333Z" fill="#C3CAD9"/>
</svg>
