<svg width="22" height="25" viewBox="0 0 22 25" fill="none" xmlns="http://www.w3.org/2000/svg">
<path d="M16.5878 3.32626C16.8536 9.17323 17.8795 15.0039 18.3614 20.8411C18.8978 27.3372 19.7465 19.6844 19.9134 17.5155C20.3513 11.8228 18.2762 9.29336 14.8141 6.09759C12.7054 4.15103 10.3616 2.19145 7.27613 2.32858C0.0474777 2.64985 0.635339 9.58303 7.27613 10.5317C10.2122 10.9512 15.1214 12.3915 17.1421 9.31233C18.8148 6.76336 16.5493 6.80415 14.3707 6.09759C11.7935 5.26172 8.10036 3.61904 5.28077 4.32394C2.95066 4.90646 9.60507 6.50002 11.932 7.09527C17.4441 8.50535 8.60636 12.2951 8.60636 12.3054" stroke="white" stroke-width="3" stroke-linecap="round"/>
</svg>
