<svg width="29" height="34" viewBox="0 0 29 34" fill="none" xmlns="http://www.w3.org/2000/svg">
<path d="M19.3458 29.0415C20.0848 26.6768 20.7205 24.2926 21.6145 21.9763C21.8588 21.3434 24.6656 15.0407 24.5313 15.0407C22.7822 15.0407 22.2137 12.3342 21.0959 11.2164C19.3302 9.45072 17.6416 9.42949 15.878 11.2812C13.4878 13.791 9.28669 15.4188 7.35442 18.0872C5.55204 20.5762 16.1676 21.5255 17.3365 21.4577C21.2919 21.2284 23.9348 14.3922 20.707 11.8322C17.4752 9.26904 15.6424 9.4501 12.313 11.2812C11.3729 11.7983 0.905605 18.9577 5.92841 19.6752C6.89097 19.8127 7.88419 19.5946 8.84524 19.7077C10.7289 19.9293 8.24761 24.6825 7.90537 25.3469C6.14086 28.7721 4.00158 31.1371 5.47468 25.7358C6.56304 21.7451 9.42861 17.0797 9.42861 12.9341C9.42861 10.1793 9.53057 1.91687 9.42861 4.66976C9.35258 6.72265 7.09514 12.4281 7.09514 10.3738" stroke="white" stroke-width="8" stroke-linecap="round"/>
</svg>
