<svg width="24" height="38" viewBox="0 0 24 38" fill="none" xmlns="http://www.w3.org/2000/svg">
<path d="M21.5784 1.66229C20.5919 12.5139 17.9241 24.8976 13.597 34.9182C13.3397 35.5142 12.3733 37.2374 11.6571 35.8051C9.2659 31.0227 11.2301 22.9787 12.2114 18.124C12.2466 17.9498 15.7222 4.2214 18.3637 5.54215C19.2403 5.98045 13.9998 17.9799 13.7633 19.3988C13.5763 20.5207 14.1453 26.554 14.373 25.9391C15.4756 22.9621 19.7088 11.3012 18.0866 8.86775C16.4141 6.35911 5.13832 17.6077 4.06365 19.3988C2.23297 22.4499 9.36294 12.5307 10.4377 10.9185C13.341 6.56357 5.21949 17.487 4.72877 18.1794C3.72373 19.5975 -0.784786 27.1183 3.23225 28.0453C7.78576 29.0962 13.4266 18.5486 14.9273 15.2972C17.321 10.1108 12.36 12.534 10.216 14.743C9.70144 15.2731 3.81239 24.3769 7.27839 23.1678C8.57889 22.7141 16.6546 18.3772 14.2621 16.1841C11.6945 13.8304 6.459 14.6835 3.62023 15.6298" stroke="white" stroke-width="3" stroke-linecap="round"/>
</svg>
