<svg width="24" height="25" viewBox="0 0 24 25" fill="none" xmlns="http://www.w3.org/2000/svg">
<path fill-rule="evenodd" clip-rule="evenodd" d="M1.56643 12.5C1.58302 12.5301 1.60133 12.563 1.62133 12.5986C1.73999 12.8096 1.91836 13.1133 2.15439 13.4787C2.62709 14.2107 3.32783 15.1853 4.23977 16.158C6.07276 18.1132 8.69975 20 12 20C15.3002 20 17.9272 18.1132 19.7602 16.158C20.6722 15.1853 21.3729 14.2107 21.8456 13.4787C22.0816 13.1133 22.26 12.8096 22.3787 12.5986C22.3987 12.5631 22.417 12.5301 22.4336 12.5C22.417 12.4699 22.3987 12.437 22.3787 12.4014C22.26 12.1904 22.0816 11.8867 21.8456 11.5213C21.3729 10.7893 20.6722 9.8147 19.7602 8.84197C17.9272 6.88678 15.3002 5 12 5C8.69975 5 6.07276 6.88678 4.23977 8.84197C3.32783 9.8147 2.62709 10.7893 2.15439 11.5213C1.91836 11.8867 1.73999 12.1904 1.62133 12.4014C1.60133 12.437 1.58302 12.4699 1.56643 12.5ZM23 12.5C23.4472 12.2764 23.4471 12.2762 23.447 12.276L23.4459 12.2737L23.443 12.2681L23.433 12.2484C23.4243 12.2316 23.4118 12.2074 23.3953 12.1763C23.3624 12.1141 23.314 12.0244 23.2502 11.9111C23.1228 11.6846 22.934 11.3633 22.6856 10.9787C22.1896 10.2107 21.4528 9.1853 20.4898 8.15803C18.5728 6.11322 15.6998 4 12 4C8.30025 4 5.42724 6.11322 3.51023 8.15803C2.54717 9.1853 1.81041 10.2107 1.31436 10.9787C1.06602 11.3633 0.877193 11.6846 0.749759 11.9111C0.686023 12.0244 0.637588 12.1141 0.604692 12.1763C0.588242 12.2074 0.575673 12.2316 0.567013 12.2484L0.556958 12.2681L0.554135 12.2737L0.553277 12.2754C0.553169 12.2756 0.552786 12.2764 1 12.5L0.552786 12.2764C0.482405 12.4172 0.482405 12.5828 0.552786 12.7236L1 12.5C0.552786 12.7236 0.552679 12.7234 0.552786 12.7236L0.553277 12.7246L0.554135 12.7263L0.556958 12.7319L0.567013 12.7516C0.575673 12.7684 0.588242 12.7926 0.604692 12.8237C0.637588 12.8859 0.686023 12.9756 0.749759 13.0889C0.877193 13.3154 1.06602 13.6367 1.31436 14.0213C1.81041 14.7893 2.54717 15.8147 3.51023 16.842C5.42724 18.8868 8.30025 21 12 21C15.6998 21 18.5728 18.8868 20.4898 16.842C21.4528 15.8147 22.1896 14.7893 22.6856 14.0213C22.934 13.6367 23.1228 13.3154 23.2502 13.0889C23.314 12.9756 23.3624 12.8859 23.3953 12.8237C23.4118 12.7926 23.4243 12.7684 23.433 12.7516L23.443 12.7319L23.4459 12.7263L23.4467 12.7246C23.4468 12.7244 23.4472 12.7236 23 12.5ZM23 12.5L23.4472 12.7236C23.5176 12.5828 23.5174 12.4168 23.447 12.276L23 12.5Z" fill="#414141"/>
<path fill-rule="evenodd" clip-rule="evenodd" d="M8.5 12.5C8.5 10.567 10.067 9 12 9C13.933 9 15.5 10.567 15.5 12.5C15.5 14.433 13.933 16 12 16C10.067 16 8.5 14.433 8.5 12.5ZM12 10C10.6193 10 9.5 11.1193 9.5 12.5C9.5 13.8807 10.6193 15 12 15C13.3807 15 14.5 13.8807 14.5 12.5C14.5 11.1193 13.3807 10 12 10Z" fill="#414141"/>
</svg>
